<svg width="200" height="35" viewBox="0 0 200 35" fill="none" xmlns="http://www.w3.org/2000/svg">
<path d="M0 0.482422H6.14089L18.3424 21.7548V0.482422H23.6003V28.9794H17.2186L5.21775 8.30905V28.9794H0V0.482422ZM25.3842 18.3432C25.3842 11.6002 29.5584 7.22536 35.9401 7.22536C41.4388 7.22536 45.8538 10.9982 45.9341 18.5037V19.748H30.8026C31.0434 23.28 32.8897 25.4072 35.9401 25.4072C37.8667 25.4072 39.6327 24.2834 40.3953 22.4371L45.6531 22.7983C44.3688 26.8923 40.5157 29.461 35.9401 29.461C29.5584 29.461 25.3842 25.0861 25.3842 18.3432ZM30.8428 16.3364H40.6361C40.2347 12.6839 38.2279 11.2792 35.9401 11.2792C33.0904 11.2792 31.2441 13.1656 30.8428 16.3364ZM60.1878 7.707H65.9275L58.5021 18.1425L66.2083 28.9794H60.4287L55.4919 21.5942L50.5149 28.9794H44.7353L52.4415 18.1425L45.0162 7.707H50.7959L55.4919 14.6908L60.1878 7.707ZM69.567 2.73007H74.7045V7.707H80.3236V11.6805H74.7045V22.4371C74.7045 24.0827 75.5473 25.0058 77.1127 25.0058H80.3236V28.9794H76.2698C71.8949 28.9794 69.567 26.7719 69.567 22.4371V11.6805H66.1955V7.707H69.567V2.73007ZM82.0098 23.3602H87.9099V28.9794H82.0098V23.3602ZM96.6396 28.297C96.6396 32.6318 94.5525 34.9998 90.0973 34.9998H87.0068V31.0263H89.1742C90.6191 31.0263 91.5021 29.9828 91.5021 28.297V7.707H96.6396V28.297ZM91.3817 4.89744V0.522559H96.7199V4.89744H91.3817ZM112.282 14.5302C111.881 12.3628 109.994 11.1186 107.947 11.1186C105.9 11.1186 104.375 12.1622 104.415 13.8479C104.455 15.5336 106.462 16.2159 108.75 16.6173C114.53 17.6207 117.741 19.186 117.741 23.28C117.741 27.3739 113.566 29.461 108.589 29.461C102.97 29.461 98.9165 26.6916 98.5553 22.2364L103.813 21.9555C104.215 24.2031 105.9 25.5276 108.549 25.5276C110.315 25.5276 112.443 24.9256 112.402 23.1596C112.402 21.1126 109.874 20.8718 107.706 20.3901C102.609 19.3466 99.0771 17.9017 99.0771 13.9282C99.0771 9.7941 102.689 7.22536 108.228 7.22536C113.085 7.22536 116.817 9.95464 117.5 14.2894L112.282 14.5302Z" fill="white"/>
<path d="M129.443 1.48242H196.954C198.084 1.48242 199 2.39848 199 3.52766V25.8633C199 26.9925 198.084 27.9085 196.954 27.9085H129.443C128.313 27.9085 127.397 26.9925 127.397 25.8633V3.52765C127.397 2.39848 128.313 1.48242 129.443 1.48242Z" stroke="white" stroke-width="2"/>
<path d="M135.595 22.0828V8.0752H144.364V9.96161H137.842V14.0355H144.124V15.9219H137.842V20.1964H144.364V22.0828H135.595Z" fill="white"/>
<path d="M157.582 22.0828H155.033L153.448 19.3134L151.962 16.6644H151.842L150.317 19.3134L148.671 22.0828H146.283L150.578 14.8984L146.544 8.0752H149.093L150.518 10.5837L151.962 13.1725H152.063L153.508 10.5837L154.993 8.0752H157.381L153.327 14.8984L157.582 22.0828Z" fill="white"/>
<path d="M165.079 9.96161V22.0828H162.832V9.96161H158.437V8.0752H169.474V9.96161H165.079Z" fill="white"/>
<path d="M173.881 22.0828H171.654V8.0752H176.892C178.23 8.0752 179.246 8.4498 179.942 9.19902C180.651 9.94823 181.006 10.9784 181.006 12.2895C181.006 13.3598 180.745 14.2428 180.223 14.9385C179.701 15.6342 178.952 16.0624 177.975 16.2229L181.206 22.0828H178.718L175.748 16.4236H173.881V22.0828ZM176.571 14.6175C177.962 14.6175 178.658 13.982 178.658 12.711V11.848C178.658 10.577 177.962 9.94154 176.571 9.94154H173.881V14.6175H176.571Z" fill="white"/>
<path d="M191.273 22.0828L190.209 18.3501H185.754L184.69 22.0828H182.403L186.497 8.0752H189.567L193.661 22.0828H191.273ZM188.062 10.3429H187.901L186.175 16.4838H189.788L188.062 10.3429Z" fill="white"/>
</svg>
