<svg width="200" height="35" viewBox="0 0 200 35" fill="none" xmlns="http://www.w3.org/2000/svg">
<path d="M0 0.213867H6.14089L18.3424 21.4862V0.213867H23.6003V28.7108H17.2186L5.21775 8.04049V28.7108H0V0.213867ZM25.3842 18.0746C25.3842 11.3317 29.5584 6.95681 35.9401 6.95681C41.4388 6.95681 45.8538 10.7296 45.9341 18.2352V19.4794H30.8026C31.0434 23.0114 32.8897 25.1387 35.9401 25.1387C37.8667 25.1387 39.6327 24.0148 40.3953 22.1686L45.6531 22.5298C44.3688 26.6237 40.5157 29.1924 35.9401 29.1924C29.5584 29.1924 25.3842 24.8176 25.3842 18.0746ZM30.8428 16.0678H40.6361C40.2347 12.4154 38.2279 11.0106 35.9401 11.0106C33.0904 11.0106 31.2441 12.897 30.8428 16.0678ZM60.1878 7.43844H65.9275L58.5021 17.8739L66.2083 28.7108H60.4287L55.4919 21.3257L50.5149 28.7108H44.7353L52.4415 17.8739L45.0162 7.43844H50.7959L55.4919 14.4222L60.1878 7.43844ZM69.567 2.46151H74.7045V7.43844H80.3236V11.412H74.7045V22.1686C74.7045 23.8142 75.5473 24.7373 77.1127 24.7373H80.3236V28.7108H76.2698C71.8949 28.7108 69.567 26.5033 69.567 22.1686V11.412H66.1955V7.43844H69.567V2.46151ZM82.0098 23.0917H87.9099V28.7108H82.0098V23.0917ZM96.6396 28.0285C96.6396 32.3632 94.5525 34.7313 90.0973 34.7313H87.0068V30.7578H89.1742C90.6191 30.7578 91.5021 29.7142 91.5021 28.0285V7.43844H96.6396V28.0285ZM91.3817 4.62889V0.254004H96.7199V4.62889H91.3817ZM112.282 14.2617C111.881 12.0943 109.994 10.8501 107.947 10.8501C105.9 10.8501 104.375 11.8936 104.415 13.5793C104.455 15.2651 106.462 15.9474 108.75 16.3488C114.53 17.3522 117.741 18.9175 117.741 23.0114C117.741 27.1053 113.566 29.1924 108.589 29.1924C102.97 29.1924 98.9165 26.423 98.5553 21.9679L103.813 21.6869C104.215 23.9346 105.9 25.2591 108.549 25.2591C110.315 25.2591 112.443 24.657 112.402 22.891C112.402 20.8441 109.874 20.6032 107.706 20.1216C102.609 19.078 99.0771 17.6331 99.0771 13.6596C99.0771 9.52554 102.689 6.95681 108.228 6.95681C113.085 6.95681 116.817 9.68609 117.5 14.0208L112.282 14.2617Z" fill="black"/>
<path d="M129.443 1.21387H196.954C198.084 1.21387 199 2.12993 199 3.2591V25.5948C199 26.7239 198.084 27.64 196.954 27.64H129.443C128.313 27.64 127.397 26.7239 127.397 25.5947V3.2591C127.397 2.12993 128.313 1.21387 129.443 1.21387Z" stroke="black" stroke-width="2"/>
<path d="M135.595 21.8143V7.80664H144.364V9.69306H137.842V13.7669H144.124V15.6533H137.842V19.9279H144.364V21.8143H135.595Z" fill="black"/>
<path d="M157.582 21.8143H155.033L153.448 19.0449L151.962 16.3959H151.842L150.317 19.0449L148.671 21.8143H146.283L150.578 14.6299L146.544 7.80664H149.093L150.518 10.3152L151.962 12.904H152.063L153.508 10.3152L154.993 7.80664H157.381L153.327 14.6299L157.582 21.8143Z" fill="black"/>
<path d="M165.079 9.69306V21.8143H162.832V9.69306H158.437V7.80664H169.474V9.69306H165.079Z" fill="black"/>
<path d="M173.881 21.8143H171.654V7.80664H176.892C178.23 7.80664 179.246 8.18125 179.942 8.93046C180.651 9.67968 181.006 10.7099 181.006 12.021C181.006 13.0913 180.745 13.9743 180.223 14.67C179.701 15.3657 178.952 15.7938 177.975 15.9544L181.206 21.8143H178.718L175.748 16.155H173.881V21.8143ZM176.571 14.3489C177.962 14.3489 178.658 13.7134 178.658 12.4424V11.5795C178.658 10.3085 177.962 9.67299 176.571 9.67299H173.881V14.3489H176.571Z" fill="black"/>
<path d="M191.273 21.8143L190.209 18.0816H185.754L184.69 21.8143H182.403L186.497 7.80664H189.567L193.661 21.8143H191.273ZM188.062 10.0744H187.901L186.175 16.2152H189.788L188.062 10.0744Z" fill="black"/>
</svg>
